<svg width="25" height="24" viewBox="0 0 25 24" fill="none" xmlns="http://www.w3.org/2000/svg">
<path d="M2.5 18H22.5V20H2.5V18Z" stroke="#FF4E18" stroke-width="1.5" stroke-linejoin="round"/>
<path d="M2.5 14C2.5 13.4477 2.94772 13 3.5 13H21.5C22.0523 13 22.5 13.4477 22.5 14V18H2.5V14Z" stroke="#FF4E18" stroke-width="1.5" stroke-linejoin="round"/>
<rect x="11.5" y="9" width="4" height="6" rx="1" transform="rotate(90 11.5 9)" stroke="#FF4E18" stroke-width="1.5" stroke-linejoin="round"/>
<rect x="19.5" y="9" width="4" height="6" rx="1" transform="rotate(90 19.5 9)" stroke="#FF4E18" stroke-width="1.5" stroke-linejoin="round"/>
<path d="M20.5 5C21.0523 5 21.5 5.44772 21.5 6L21.5 13L3.5 13L3.5 6C3.5 5.44771 3.94772 5 4.5 5L20.5 5Z" stroke="#FF4E18" stroke-width="1.5" stroke-linejoin="round"/>
<path d="M19.5 20H21.5V22H20.5L19.5 20Z" stroke="#FF4E18" stroke-width="1.5" stroke-linejoin="round"/>
<path d="M3.5 20H5.5L4.5 22H3.5V20Z" stroke="#FF4E18" stroke-width="1.5" stroke-linejoin="round"/>
</svg>
