<svg width="16" height="16" viewBox="0 0 16 16" fill="none" xmlns="http://www.w3.org/2000/svg">
<path d="M14.7931 1.20689C14.566 0.980764 14.2964 0.801875 13.9997 0.680554C13.7031 0.559233 13.3854 0.497886 13.0649 0.500056C12.7445 0.502225 12.4276 0.567868 12.1327 0.693194C11.8377 0.818519 11.5705 1.00104 11.3465 1.23022L2.06717 10.5096C1.81371 10.763 1.63302 11.0799 1.54402 11.4272L0.667821 14.8453C0.592313 15.1399 0.860111 15.4076 1.15467 15.3321L4.57301 14.4554C4.92013 14.3663 5.23695 14.1857 5.49034 13.9323L14.7698 4.65284C14.999 4.42893 15.1816 4.1618 15.307 3.8669C15.4323 3.572 15.498 3.25517 15.5002 2.93473C15.5023 2.61429 15.441 2.2966 15.3196 2.00003C15.1982 1.70345 15.0193 1.43388 14.7931 1.20689Z" fill="#FF4E18" stroke="#FF4E18" stroke-linecap="round" stroke-linejoin="round"/>
</svg>
