<svg width="20" height="20" viewBox="0 0 20 20" fill="none" xmlns="http://www.w3.org/2000/svg">
<path d="M3 5V16C3 16.2652 3.10536 16.5196 3.29289 16.7071M3 5C4.10457 5 5 4.10457 5 3C5 1.89543 4.10457 1 3 1C1.89543 1 1 1.89543 1 3C1 4.10457 1.89543 5 3 5ZM3.29289 16.7071C3.48043 16.8946 3.73478 17 4 17H15M3.29289 16.7071L9 11M15 17C15 18.1046 15.8954 19 17 19C18.1046 19 19 18.1046 19 17C19 15.8954 18.1046 15 17 15C15.8954 15 15 15.8954 15 17Z" stroke="#FF4E18" stroke-width="1.5" stroke-linecap="round" stroke-linejoin="round"/>
</svg>
